<?xml version="1.0" encoding="UTF-8" standalone="no"?>
<!-- Created with Inkscape (http://www.inkscape.org/) -->

<svg
   xmlns:dc="http://purl.org/dc/elements/1.1/"
   xmlns:cc="http://creativecommons.org/ns#"
   xmlns:rdf="http://www.w3.org/1999/02/22-rdf-syntax-ns#"
   xmlns:svg="http://www.w3.org/2000/svg"
   xmlns="http://www.w3.org/2000/svg"
   xmlns:xlink="http://www.w3.org/1999/xlink"
   xmlns:sodipodi="http://sodipodi.sourceforge.net/DTD/sodipodi-0.dtd"
   xmlns:inkscape="http://www.inkscape.org/namespaces/inkscape"
   width="120"
   height="150"
   viewBox="0 0 31.749999 39.687501"
   version="1.1"
   id="svg1015"
   inkscape:version="0.92.5 (2060ec1f9f, 2020-04-08)"
   sodipodi:docname="gui_two_balloons.svg">
  <defs
     id="defs1009">
    <radialGradient
       inkscape:collect="always"
       xlink:href="#id0-3"
       id="radialGradient4437"
       gradientUnits="userSpaceOnUse"
       gradientTransform="matrix(0.00845428,0,0,0.00845428,-0.53933547,257.31254)"
       cx="1560.52"
       cy="571.28101"
       fx="1560.52"
       fy="571.28101"
       r="3457.53" />
    <radialGradient
       id="id0-3"
       gradientUnits="userSpaceOnUse"
       cx="1560.52"
       cy="571.28101"
       r="3457.53"
       fx="1560.52"
       fy="571.28101">
      <stop
         offset="0"
         style="stop-color:#FEFEFE"
         id="stop5226" />
      <stop
         offset="0.380392"
         style="stop-color:#D8D8D8"
         id="stop5228" />
      <stop
         offset="1"
         style="stop-color:#B2B3B3"
         id="stop5230" />
    </radialGradient>
    <radialGradient
       inkscape:collect="always"
       xlink:href="#id0-3-5"
       id="radialGradient4437-1"
       gradientUnits="userSpaceOnUse"
       gradientTransform="matrix(0.00845428,0,0,0.00845428,18.848171,257.31254)"
       cx="1560.52"
       cy="571.28101"
       fx="1560.52"
       fy="571.28101"
       r="3457.53" />
    <radialGradient
       id="id0-3-5"
       gradientUnits="userSpaceOnUse"
       cx="1560.52"
       cy="571.28101"
       r="3457.53"
       fx="1560.52"
       fy="571.28101">
      <stop
         offset="0"
         style="stop-color:#FEFEFE"
         id="stop5226-5" />
      <stop
         offset="0.380392"
         style="stop-color:#D8D8D8"
         id="stop5228-4" />
      <stop
         offset="1"
         style="stop-color:#B2B3B3"
         id="stop5230-7" />
    </radialGradient>
  </defs>
  <sodipodi:namedview
     id="base"
     pagecolor="#ffffff"
     bordercolor="#666666"
     borderopacity="1.0"
     inkscape:pageopacity="0.0"
     inkscape:pageshadow="2"
     inkscape:zoom="5.7066667"
     inkscape:cx="60"
     inkscape:cy="75"
     inkscape:document-units="mm"
     inkscape:current-layer="layer1"
     showgrid="false"
     units="px"
     inkscape:window-width="1477"
     inkscape:window-height="1080"
     inkscape:window-x="1920"
     inkscape:window-y="0"
     inkscape:window-maximized="0"
     inkscape:snap-intersection-paths="true"
     inkscape:snap-midpoints="true" />
  <metadata
     id="metadata1012">
    <rdf:RDF>
      <cc:Work
         rdf:about="">
        <dc:format>image/svg+xml</dc:format>
        <dc:type
           rdf:resource="http://purl.org/dc/dcmitype/StillImage" />
        <dc:title></dc:title>
      </cc:Work>
    </rdf:RDF>
  </metadata>
  <g
     inkscape:label="Layer 1"
     inkscape:groupmode="layer"
     id="layer1"
     transform="translate(0,-257.31249)">
    <path
       inkscape:connector-curvature="0"
       style="fill:url(#radialGradient4437);fill-rule:evenodd;stroke-width:0.16872768"
       id="path5234"
       d="m 6.9511585,273.97593 c -0.059182,-0.17754 -0.2958994,-0.60871 -0.4227139,-0.78625 -0.2198117,-0.30436 -0.3381707,-0.41426 -0.6678885,-0.70171 -1.1666905,-1.00606 -2.468649,-1.96139 -3.1788087,-2.68846 -0.3381707,-0.34663 -0.7270681,-0.75243 -1.2935055,-1.63167 -1.03987667,-1.60632 -1.54713307,-2.78146 -1.34423097,-4.88658 0.1521772,-1.53868 0.9299708,-3.0689 2.20656777,-4.19332 0.8285192,-0.73552 2.2657482,-1.78385 4.1595052,-1.7754 1.8853076,0 3.8805141,1.7923 4.6583101,2.93363 0.549529,0.80316 1.200508,2.22348 1.268138,3.51699 0.05919,1.28505 0.03384,1.9783 -0.253628,2.74764 -0.287442,0.76933 -0.769336,1.87685 -1.149781,2.41792 -0.304356,0.43117 -1.0398769,1.30196 -1.5386785,1.80077 -0.515709,0.59179 -1.420315,1.41185 -1.7077636,1.80076 -0.1268108,0.17754 -0.3550775,0.47343 -0.4227127,0.63406 -0.1099035,0.27054 -0.2874482,0.73553 -0.3128097,0.81162 z"
       class="fil0" />
    <rect
       style="fill:#ff9955;stroke:none;stroke-width:0.02755281;stroke-miterlimit:4;stroke-dasharray:none"
       id="rect1595"
       width="5.5363774"
       height="5.5363774"
       x="13.106812"
       y="291.46362"
       ry="4.4343476e-08" />
    <path
       inkscape:connector-curvature="0"
       style="fill:url(#radialGradient4437-1);fill-rule:evenodd;stroke-width:0.16872768"
       id="path5234-6"
       d="m 26.338665,273.97593 c -0.05918,-0.17753 -0.295899,-0.6087 -0.422714,-0.78625 -0.219812,-0.30436 -0.338171,-0.41425 -0.667888,-0.7017 -1.166691,-1.00606 -2.46865,-1.9614 -3.178809,-2.68846 -0.338171,-0.34663 -0.727069,-0.75244 -1.293506,-1.63168 -1.039876,-1.60631 -1.547132,-2.78145 -1.344231,-4.88658 0.152177,-1.53867 0.929971,-3.0689 2.206568,-4.19331 0.828519,-0.73553 2.265749,-1.78386 4.159505,-1.77541 1.885308,0 3.880514,1.79231 4.65831,2.93363 0.54953,0.80317 1.200509,2.22348 1.268138,3.517 0.05919,1.28504 0.03384,1.97829 -0.253627,2.74763 -0.287442,0.76934 -0.769337,1.87685 -1.149782,2.41793 -0.304355,0.43116 -1.039876,1.30195 -1.538678,1.80076 -0.515708,0.5918 -1.420316,1.41186 -1.707764,1.80076 -0.126811,0.17754 -0.355077,0.47344 -0.422713,0.63406 -0.109903,0.27055 -0.287448,0.73553 -0.312809,0.81162 z"
       class="fil0" />
    <path
       style="fill:none;stroke:#000000;stroke-width:0.11672756;stroke-linecap:butt;stroke-linejoin:miter;stroke-miterlimit:4;stroke-dasharray:none;stroke-opacity:1"
       d="m 15.875,291.46362 v -5.53817 l 10.463665,-11.94952"
       id="path2765"
       inkscape:connector-curvature="0"
       sodipodi:nodetypes="ccc" />
    <path
       style="fill:none;stroke:#000000;stroke-width:0.11672756;stroke-linecap:butt;stroke-linejoin:miter;stroke-miterlimit:4;stroke-dasharray:none;stroke-opacity:1"
       d="M 15.818219,285.92531 6.9511585,273.97593"
       id="path2767"
       inkscape:connector-curvature="0"
       sodipodi:nodetypes="cc" />
  </g>
</svg>
